# xmcd
#
# Track frame offsets:
#	150
#	12777
#	18833
#	31039
#	43945
#	56049
#	68847
#	71726
#	86258
#	101111
#	117304
#	131773
#	135719
#	151050
#	164367
#	173511
#	188201
#	202701
#	219701
#	232217
#	236234
#	248830
#	262527
#	274784
#	281783
#
# Disc length: 3942 seconds
#
# Revision: 3
# Processed by: cddbd v1.4PL0 Copyright (c) Steve Scherf et al.
# Submitted via: MusicManager 7.0.3.0 
#
DISCID=5f0f6419
DTITLE=Merle Haggard - Same Train, A Different Time
DYEAR=1969
DGENRE=
TTITLE0=California Blues
TTITLE1=Narration #1
TTITLE2=Hobo's Meditation
TTITLE3=Waitin' For A Train
TTITLE4=Mother, The Queen Of My Heart
TTITLE5=My Carolina Sunshine Girl
TTITLE6=Narration #2
TTITLE7=Train Whistle Blues
TTITLE8=Why Should I Be Lonely
TTITLE9=Jimmie's Texas Blues
TTITLE10=Blue Yodel No. 6
TTITLE11=Narration #3
TTITLE12=Mule Skinner Blues (Blue Yodel No. 8)
TTITLE13=Peach Picking Time Down In Georgia
TTITLE14=Down The Old Road To Home
TTITLE15=Travlin' Blues
TTITLE16=Miss The Mississippi And You
TTITLE17=Frankie And Johnny
TTITLE18=No Hard Times
TTITLE19=Narration #4
TTITLE20=Hobo Bill's Last Ride
TTITLE21=My Old Pal
TTITLE22=Nobody Knows But Me
TTITLE23=Narration #5
TTITLE24=Jimmie Rodger's Last Blue Yodel (The Women Made A Fool Out Of Me)
EXTD=
EXTT0=
EXTT1=
EXTT2=
EXTT3=
EXTT4=
EXTT5=
EXTT6=
EXTT7=
EXTT8=
EXTT9=
EXTT10=
EXTT11=
EXTT12=
EXTT13=
EXTT14=
EXTT15=
EXTT16=
EXTT17=
EXTT18=
EXTT19=
EXTT20=
EXTT21=
EXTT22=
EXTT23=
EXTT24=
PLAYORDER=
